<svg width="60" height="60" viewBox="0 0 60 60" fill="none" xmlns="http://www.w3.org/2000/svg">
<g clip-path="url(#clip0_7_100)">
<path d="M10.8878 22.282H8.86999V20.2587C8.86999 19.8873 8.56883 19.5862 8.19764 19.5862H6.14723C5.77593 19.5862 5.47489 19.8873 5.47489 20.2587V22.282H3.45699V20.2587C3.45699 19.8873 3.15583 19.5862 2.78465 19.5862H0.734237C0.36293 19.5862 0.0618896 19.8873 0.0618896 20.2587V22.282V24.4571V25.0275C0.0618896 26.1883 1.00288 27.1294 2.16381 27.1294H12.1791C13.3399 27.1294 14.281 26.1884 14.281 25.0275V24.4571V22.282V20.2587C14.281 19.8873 13.98 19.5862 13.6086 19.5862H11.5604C11.1888 19.5862 10.8879 19.8873 10.8879 20.2587V22.282H10.8878Z" fill="url(#paint0_linear_7_100)"/>
<path d="M12.1828 29.4627H2.15979V59.4673H12.1828V29.4627Z" fill="url(#paint1_linear_7_100)"/>
<path d="M56.5451 22.282H54.5272V20.2587C54.5272 19.8873 54.2261 19.5862 53.8549 19.5862H51.8048C51.4333 19.5862 51.1322 19.8873 51.1322 20.2587V22.282H49.1145V20.2587C49.1145 19.8873 48.8133 19.5862 48.442 19.5862H46.3917C46.0202 19.5862 45.7192 19.8873 45.7192 20.2587V22.282V24.4571V25.0275C45.7192 26.1883 46.6604 27.1294 47.8212 27.1294H57.8365C58.9973 27.1294 59.9384 26.1883 59.9384 25.0275V24.4571V22.282V20.2587C59.9384 19.8873 59.6372 19.5862 59.266 19.5862H57.2177C56.8464 19.5862 56.5454 19.8873 56.5454 20.2587V22.282H56.5451Z" fill="url(#paint2_linear_7_100)"/>
<path d="M57.8405 29.4627H47.8174V59.4673H57.8405V29.4627Z" fill="url(#paint3_linear_7_100)"/>
<path d="M7.81509 5.51964C7.67809 5.293 7.43417 5.1543 7.17039 5.1543C6.90674 5.1543 6.66232 5.293 6.52593 5.51964L0.10691 16.2537C-0.0320412 16.4852 -0.0358164 16.7743 0.0971673 17.0097C0.231734 17.2441 0.4798 17.3897 0.751369 17.3897H13.5894C13.8609 17.3897 14.1089 17.2441 14.2437 17.0097C14.3765 16.7743 14.3727 16.4852 14.234 16.2537L7.81509 5.51964Z" fill="url(#paint4_linear_7_100)"/>
<path d="M21.0417 17.3896H38.7297C39.101 17.3896 39.4447 17.1894 39.6282 16.866C39.812 16.5417 39.8082 16.1442 39.6167 15.8249L30.7736 1.03548C30.5879 0.723848 30.2501 0.532532 29.8868 0.532532C29.5233 0.532532 29.1852 0.723848 28.9998 1.03548L20.1527 15.8248C19.9615 16.1441 19.9574 16.5417 20.141 16.8659C20.3245 17.1893 20.6686 17.3896 21.0417 17.3896Z" fill="url(#paint5_linear_7_100)"/>
<path d="M46.4107 17.3895H59.2484C59.5201 17.3895 59.7682 17.244 59.9028 17.0096C60.0358 16.7742 60.0319 16.4851 59.8932 16.2536L53.474 5.51951C53.3375 5.29288 53.0934 5.15417 52.8296 5.15417C52.5658 5.15417 52.3218 5.29288 52.1849 5.51951L45.766 16.2536C45.6272 16.4851 45.6234 16.7742 45.7564 17.0096C45.8912 17.244 46.1391 17.3895 46.4107 17.3895Z" fill="url(#paint6_linear_7_100)"/>
<path d="M21.7921 19.5862C21.2109 19.5862 20.6819 19.921 20.4328 20.4461L14.8395 32.2462H45.1605L39.5671 20.4461C39.3182 19.9209 38.7891 19.5862 38.208 19.5862H21.7921Z" fill="url(#paint7_linear_7_100)"/>
<path d="M14.8395 59.4674H22.8113V52.8618C22.8113 48.8914 26.0307 45.6732 29.9997 45.6732C33.9693 45.6732 37.1887 48.8915 37.1887 52.8618V59.4674H45.1605V34.4869H14.8395V59.4674Z" fill="url(#paint8_linear_7_100)"/>
</g>
<defs>
<linearGradient id="paint0_linear_7_100" x1="0.0618896" y1="23.3637" x2="14.281" y2="23.3637" gradientUnits="userSpaceOnUse">
<stop offset="0.637866" stop-color="#DD9900"/>
<stop offset="1" stop-color="#D0B601"/>
</linearGradient>
<linearGradient id="paint1_linear_7_100" x1="2.15979" y1="44.4884" x2="12.1828" y2="44.4884" gradientUnits="userSpaceOnUse">
<stop offset="0.637866" stop-color="#DD9900"/>
<stop offset="1" stop-color="#D0B601"/>
</linearGradient>
<linearGradient id="paint2_linear_7_100" x1="45.7192" y1="23.3637" x2="59.9384" y2="23.3637" gradientUnits="userSpaceOnUse">
<stop offset="0.637866" stop-color="#DD9900"/>
<stop offset="1" stop-color="#D0B601"/>
</linearGradient>
<linearGradient id="paint3_linear_7_100" x1="47.8174" y1="44.4884" x2="57.8405" y2="44.4884" gradientUnits="userSpaceOnUse">
<stop offset="0.637866" stop-color="#DD9900"/>
<stop offset="1" stop-color="#D0B601"/>
</linearGradient>
<linearGradient id="paint4_linear_7_100" x1="0" y1="11.2815" x2="14.3407" y2="11.2815" gradientUnits="userSpaceOnUse">
<stop offset="0.637866" stop-color="#DD9900"/>
<stop offset="1" stop-color="#D0B601"/>
</linearGradient>
<linearGradient id="paint5_linear_7_100" x1="20.0062" y1="8.97415" x2="39.7633" y2="8.97415" gradientUnits="userSpaceOnUse">
<stop offset="0.637866" stop-color="#DD9900"/>
<stop offset="1" stop-color="#D0B601"/>
</linearGradient>
<linearGradient id="paint6_linear_7_100" x1="45.6592" y1="11.2814" x2="59.9999" y2="11.2814" gradientUnits="userSpaceOnUse">
<stop offset="0.637866" stop-color="#DD9900"/>
<stop offset="1" stop-color="#D0B601"/>
</linearGradient>
<linearGradient id="paint7_linear_7_100" x1="14.8395" y1="25.9261" x2="45.1605" y2="25.9261" gradientUnits="userSpaceOnUse">
<stop offset="0.637866" stop-color="#DD9900"/>
<stop offset="1" stop-color="#D0B601"/>
</linearGradient>
<linearGradient id="paint8_linear_7_100" x1="14.8395" y1="46.9965" x2="45.1605" y2="46.9965" gradientUnits="userSpaceOnUse">
<stop offset="0.637866" stop-color="#DD9900"/>
<stop offset="1" stop-color="#D0B601"/>
</linearGradient>
<clipPath id="clip0_7_100">
<rect width="60" height="60" fill="white"/>
</clipPath>
</defs>
</svg>
