<svg width="60" height="60" viewBox="0 0 60 60" fill="none" xmlns="http://www.w3.org/2000/svg">
<path d="M59.4594 13.2204C58.2719 11.0036 55.5117 10.1691 53.295 11.3568C50.638 12.7801 48.1281 14.2454 45.7284 15.7794L45.7288 9.60324C45.7288 8.2406 44.6272 7.13477 43.2604 7.13477H2.46402C1.10379 7.13477 0 8.24072 0 9.60324V50.3992C0 51.7591 1.10367 52.8652 2.46402 52.8652H43.2583C44.6251 52.8652 45.727 51.7591 45.727 50.3992L45.7281 26.8063C49.3526 24.1366 53.2334 21.7218 57.5957 19.3849C59.8126 18.1972 60.6469 15.4374 59.4594 13.2204ZM40.7962 47.9285H4.93454V12.0712H40.7962V19.1434C35.8921 22.7145 31.3985 26.7026 26.9646 31.3902C26.4497 30.7099 25.9286 30.0143 25.3832 29.286C24.2565 27.7815 22.9793 26.0763 21.4837 24.151C19.9407 22.1652 17.08 21.8061 15.0939 23.3489C13.1079 24.892 12.7488 27.7528 14.2918 29.7389C15.738 31.6004 16.9355 33.1991 18.0935 34.7453C19.7607 36.9714 21.3354 39.074 23.2066 41.3424C24.0588 42.3754 25.3224 42.981 26.6613 42.998C26.6808 42.9982 26.6999 42.9982 26.7193 42.9982C28.037 42.9982 29.2916 42.4272 30.1571 41.4309C33.7081 37.343 37.167 33.8484 40.7962 30.732V47.9285Z" fill="url(#paint0_linear_7_113)"/>
<defs>
<linearGradient id="paint0_linear_7_113" x1="0" y1="30.0356" x2="60" y2="30.0356" gradientUnits="userSpaceOnUse">
<stop offset="0.637866" stop-color="#DD9900"/>
<stop offset="1" stop-color="#D0B601"/>
</linearGradient>
</defs>
</svg>
