<svg width="90" height="90" viewBox="0 0 90 90" fill="none" xmlns="http://www.w3.org/2000/svg">
<g clip-path="url(#clip0_7_157)">
<path d="M85.6915 12.0465C81.2859 6.65199 75.497 10.9361 70.8985 13.9328C70.8213 12.2823 70.7527 10.6532 70.7198 9.08415C70.6984 8.03669 69.6767 7.66944 68.9365 7.96667C65.3611 5.01292 55.218 4.79715 52.7616 4.52849C42.2756 3.381 29.0101 2.60791 19.6187 8.4211C19.3386 8.33678 19.0257 8.3968 18.8685 8.65545C18.2183 8.60972 17.8425 9.41425 18.3098 9.94012C18.3226 10.1645 18.3841 10.3788 18.5027 10.566C18.3926 11.2748 18.2926 11.9936 18.1997 12.7181C14.0228 9.6186 7.56652 6.4605 3.16234 11.0205C-1.79344 16.152 0.351489 28.8401 1.1603 34.9662C1.9334 40.818 2.88082 50.0908 8.84834 53.2946C13.7184 55.9097 19.0814 52.5544 22.1838 48.699C22.1966 48.7275 22.2067 48.7575 22.2181 48.7861C25.7606 57.0015 33.5372 60.9855 41.9112 62.2645C41.1052 63.6535 40.9094 65.3211 40.5522 66.8973C40.1078 68.8607 39.6205 70.8199 39.4076 72.8219C35.795 72.9105 25.3447 72.9177 26.6066 79.241C27.1339 81.8847 29.7704 82.6149 31.9396 83.2865C36.8025 84.7898 42.4385 85.4129 47.5171 85.8587C52.0485 86.256 66.7186 87.8279 67.0187 80.5671C67.2517 74.9011 59.0235 73.585 54.4478 73.5122C54.3349 71.5544 52.9145 69.751 52.3157 67.899C51.7498 66.1485 51.5612 64.3351 51.2054 62.5517C58.6133 61.75 65.1139 58.1818 68.2734 50.9568C71.9502 54.5479 77.5619 59.1864 82.4634 56.1941C88.7396 52.3629 89.6213 41.6197 89.8942 35.152C90.18 28.4286 90.1986 17.5653 85.6915 12.0465ZM71.5101 27.9956C71.8759 27.977 72.2403 27.8255 72.5075 27.4568C73.4378 26.1722 74.3181 24.7689 75.7742 24.0372C78.7994 22.5168 79.704 25.7835 80.0027 28.2185C80.3085 30.705 79.6754 33.6916 79.5368 36.2095C79.4954 36.9583 79.6454 38.0629 79.3996 38.7831C78.0606 42.6957 75.6856 41.3296 73.7036 40.6851C73.0663 40.4779 72.4004 40.1135 71.7202 40.1249C71.4829 40.0978 71.2472 40.0706 71.0099 40.0435C71.4887 36.1323 71.583 32.0639 71.5101 27.9956ZM44.7735 6.2976C49.1805 6.40334 53.5504 6.75059 57.9117 7.39936C58.7963 7.53083 60.1038 7.73375 61.4328 8.01097C57.4587 7.99954 53.4318 8.3768 49.5535 8.85265C49.1233 8.90553 49.0976 9.57001 49.5535 9.54572C54.9537 9.26278 60.3081 9.4657 65.6998 9.40139C66.9501 10.1716 66.9602 11.1619 64.0093 12.3994C63.955 12.3823 63.9007 12.3651 63.8349 12.3623C59.8866 12.258 55.731 12.5209 51.8227 13.0925C51.3497 13.1625 51.4969 13.8699 51.9313 13.8913C54.4721 14.0228 57.1015 13.9956 59.7008 13.8413C46.6397 17.561 33.8502 15.5375 21.6036 9.89725C28.51 6.06038 37.0283 6.11183 44.7735 6.2976ZM19.2472 39.3819C18.2397 40.1221 17.1337 40.6908 15.9262 41.0767C13.5297 41.8698 12.3137 41.2367 12.2779 39.1804C11.4234 37.6728 11.3119 34.459 11.1705 32.9556C11.0133 31.2837 10.9661 29.6032 11.0004 27.9241C11.0247 26.8052 11.089 25.6877 11.1933 24.5745C13.937 21.5308 15.9705 21.3707 17.2923 24.0958C17.3723 24.203 17.4709 24.2673 17.5653 24.3416C17.6353 29.4074 18.1626 34.5318 19.2472 39.3819ZM18.8871 49.0091C14.853 51.324 8.68829 49.242 6.53621 45.2165C4.72281 41.824 4.10977 37.0755 3.53102 33.3272C2.88368 29.1388 2.63218 24.8332 2.8351 20.5976C3.08231 15.4246 6.02177 9.96728 12.4751 12.1436C14.23 12.7353 15.8133 14.0171 17.3323 15.0288C17.5367 15.1646 17.731 15.2117 17.9168 15.2203C17.751 16.9337 17.6596 18.6856 17.6024 20.4504C15.9133 18.7128 13.7627 17.4767 11.2462 18.5813C7.42219 20.2618 7.99522 27.1853 8.11669 30.442C8.24244 33.813 8.21958 41.6097 11.4191 43.7332C13.8584 45.3522 17.4466 43.4331 19.7802 41.4668C20.2946 43.4331 20.8734 45.3622 21.5822 47.1942C20.7091 47.8373 19.8316 48.4675 18.8871 49.0091ZM51.2583 72.942C50.0522 72.9305 48.8318 73.0277 47.6372 73.0606C47.2242 73.072 47.2228 73.6922 47.6372 73.7036C49.049 73.7437 50.4952 73.8637 51.9113 73.7951C52.0314 73.9237 52.1485 74.0552 52.2814 74.1666C51.9199 74.8883 52.2786 75.9572 53.3546 76.0486C54.8422 76.1744 57.1215 76.0901 58.6076 76.6445C55.6053 76.3887 52.4915 76.5274 49.5349 76.4873C48.9304 76.4788 48.939 77.3876 49.5349 77.4219C53.1646 77.6305 57.0214 78.1393 60.6554 77.8034C61.2942 78.2221 61.8086 78.6051 62.1887 78.9495C57.996 78.7723 53.6804 79.0267 49.5435 79.231C49.1048 79.2525 49.1033 79.8926 49.5435 79.9141C53.9834 80.1341 58.6319 80.41 63.1104 80.1441C63.8235 82.089 59.1707 82.3377 57.3915 82.5406C52.5272 83.0965 47.7172 82.7578 42.8786 82.0304C41.2867 81.7904 33.6415 81.3802 32.8127 80.1227C30.592 76.756 37.2712 75.2741 39.6476 74.2824C40.2607 74.8997 41.5968 74.7754 41.884 73.7479C42.437 71.7631 42.6228 69.6967 42.8786 67.6561C43.0915 65.9656 43.5659 64.1308 43.233 62.4402C44.2947 62.566 45.3608 62.6589 46.4282 62.7032C47.3242 62.7403 48.2102 62.7318 49.0919 62.6975C48.9619 63.7149 48.9976 64.7595 49.1262 65.7927C48.4703 65.7913 47.8144 65.8041 47.1599 65.8127C46.6169 65.8184 46.6154 66.6501 47.1599 66.6572C47.8601 66.6658 48.5646 66.6772 49.2662 66.673C49.382 67.3346 49.5163 67.9891 49.6792 68.6207C49.7621 68.9451 49.8521 69.2895 49.9493 69.6424C48.8604 69.6053 47.7729 69.6324 46.684 69.6538C46.1796 69.6638 46.1782 70.4284 46.684 70.4369C47.8544 70.4598 49.0219 70.4955 50.1908 70.4426C50.4609 71.3115 50.7924 72.1889 51.2583 72.942ZM62.4031 27.9213C63.6006 27.9656 64.7966 28.0113 65.9941 28.057C66.843 28.0885 67.7161 28.1899 68.5649 28.1099C68.5635 29.4289 68.5478 30.7493 68.502 32.0639C65.827 31.6667 62.6989 32.3726 60.0281 32.6012C59.5322 32.6441 59.5179 33.4072 60.0281 33.3858C62.6846 33.27 65.877 33.573 68.4606 32.8513C68.3834 34.6447 68.2663 36.4253 68.0676 38.1601C66.2428 37.9457 64.1707 38.1058 62.4031 38.2901C61.9901 38.333 61.9901 38.8903 62.4031 38.9332C64.1336 39.1132 66.157 39.269 67.9519 39.0746C67.8218 40.0749 67.6775 41.0681 67.4932 42.0312C64.6837 42.1641 61.8943 42.5314 59.0678 42.5714C58.6419 42.5771 58.6548 43.1887 59.0678 43.2244C61.7271 43.4588 64.6437 43.5031 67.3074 42.9458C67.0659 44.0747 66.7872 45.1779 66.4543 46.2368C64.6495 46.0925 62.7575 46.2339 60.9741 46.3525C60.5153 46.3825 60.5153 47.0356 60.9741 47.0656C62.656 47.1771 64.4365 47.31 66.147 47.2057C65.9156 47.8601 65.664 48.4989 65.3897 49.1177C61.9786 49.3006 58.7034 50.0236 55.2409 49.9122C54.7579 49.8965 54.7693 50.6181 55.2409 50.6553C58.349 50.9039 61.9672 50.9996 65.0124 49.9793C64.3093 51.4083 63.4777 52.7259 62.4888 53.8991C62.4188 53.8791 62.3488 53.8577 62.273 53.8777C61.7043 54.0248 61.2113 54.2921 60.6139 54.3349C59.9809 54.3792 59.3679 54.2521 58.7977 53.9791C58.4233 53.8005 58.1232 54.2106 58.2904 54.4964C57.3944 54.5922 56.4984 54.7108 55.5982 54.7422C53.9162 54.8008 52.28 54.625 50.6181 54.3621C50.0322 54.2692 49.765 55.1137 50.3666 55.2724C53.3475 56.0569 57.0343 56.4041 59.9623 55.2066C60.3796 55.2824 60.8069 55.3024 61.2184 55.2538C58.0932 58.1975 53.6947 59.9409 47.5171 59.8509C35.122 59.6694 26.1021 54.1506 23.0841 41.7497C20.6419 31.7167 20.2946 21.5479 20.1675 11.3034C28.2999 16.7565 38.5359 19.0943 48.2488 18.6542C52.3729 18.467 63.6306 17.5653 68.2162 13.7956C68.2463 15.0274 68.2877 16.3078 68.3306 17.6167C66.843 17.2795 65.0953 17.6782 63.7063 18.1497C63.1719 18.3312 63.3862 19.1529 63.9421 19.0029C64.7366 18.7871 65.5326 18.6427 66.3571 18.597C67.0273 18.5599 67.6947 18.627 68.362 18.6013C68.3977 19.6731 68.4334 20.7505 68.4649 21.8537C66.1899 21.6208 63.6549 21.9609 61.4513 22.0323C60.9598 22.0481 60.9598 22.7797 61.4513 22.7954C63.6677 22.8683 66.2142 23.2113 68.4963 22.9712C68.5321 24.3702 68.5606 25.7792 68.5663 27.1996C67.7189 27.1196 66.8401 27.2196 65.9941 27.2511C64.7966 27.2954 63.6006 27.3411 62.4031 27.3868C62.0601 27.4011 62.0587 27.9084 62.4031 27.9213ZM87.0762 35.1477C87.0534 35.5564 87.0262 35.9951 86.9962 36.4496C86.949 36.3895 86.889 36.3381 86.8018 36.3167C85.7458 36.0537 84.4397 36.1995 83.3608 36.2924C82.8321 36.3381 82.8307 37.0712 83.3608 37.1169C84.4411 37.2098 85.7444 37.3555 86.8018 37.0926C86.8719 37.0755 86.9133 37.0283 86.9576 36.9854C86.8847 38.0186 86.7918 39.1289 86.6575 40.2793C85.4071 40.5365 84.1753 40.6765 82.8921 40.5308C82.4191 40.4765 82.3191 41.2596 82.7806 41.3596C84.051 41.6354 85.3114 41.6397 86.5303 41.2967C86.3617 42.5214 86.1459 43.7575 85.8559 44.9421C84.4111 45.3408 83.005 45.4365 81.5717 44.8692C81.1359 44.6963 80.8229 45.4323 81.2502 45.6309C82.6277 46.2739 84.1596 46.4811 85.5772 46.0167C85.2457 47.1413 84.8413 48.1974 84.3325 49.1091C81.6231 48.9276 78.9238 49.1091 76.2058 48.7475C75.7585 48.6875 75.6571 49.4492 76.0986 49.5364C78.5151 50.0136 81.1959 50.4452 83.6981 50.1365C79.5182 55.8511 73.5907 52.4344 68.9122 49.3163C69.6938 47.1071 70.2654 44.7878 70.6656 42.3913C71.5601 42.8386 72.6662 43.0444 73.5579 43.3874C75.367 44.0847 77.2418 44.7635 79.1581 43.9718C83.4008 42.2199 82.492 35.7808 82.6263 32.2126C82.632 32.0782 82.6406 31.9339 82.6492 31.7924C82.7149 31.841 82.7792 31.8939 82.8821 31.8967C83.6509 31.9168 84.4211 31.9368 85.1899 31.9553C85.8387 31.9711 86.5175 32.0511 87.1505 31.8967C87.1505 32.9828 87.1377 34.0688 87.0762 35.1477ZM85.1928 30.9736C84.424 30.9922 83.6538 31.0136 82.8849 31.0322C82.8021 31.0336 82.7563 31.0822 82.6978 31.1151C82.9893 27.4468 83.7924 22.3367 79.5782 20.9877C76.1229 19.8803 73.4207 22.0952 71.4201 24.6503C71.3258 22.1209 71.1886 19.613 71.0585 17.1566C71.0685 17.1509 71.0771 17.1523 71.0871 17.1466C72.2832 16.4221 76.0029 13.4083 77.3661 13.2583C80.1027 12.9582 83.1936 14.8516 84.8012 17.1866C83.4308 16.9694 81.8403 17.2123 80.5042 17.2538C79.9941 17.2695 79.9926 18.0311 80.5042 18.0483C82.0061 18.0954 83.8452 18.427 85.31 18.034C85.5257 18.4598 85.6944 18.8928 85.7944 19.3244C85.9602 20.0375 86.0816 20.762 86.2131 21.4836C85.1199 21.3893 83.961 21.5236 82.8864 21.5565C82.3948 21.5708 82.3948 22.3053 82.8864 22.3196C84.0182 22.3539 85.2442 22.5011 86.386 22.3739C86.5904 23.61 86.759 24.8532 86.8819 26.1021C86.6104 26.2022 86.3374 26.2979 86.0488 26.3551C85.4714 26.4694 84.9027 26.4651 84.3211 26.3922C84.0053 26.3522 83.941 26.8738 84.2468 26.9453C85.0699 27.1382 86.0816 27.2153 86.9605 26.9867C87.0705 28.3342 87.152 29.6832 87.1677 31.0336C86.5303 30.8779 85.843 30.9579 85.1928 30.9736Z" fill="url(#paint0_linear_7_157)"/>
</g>
<defs>
<linearGradient id="paint0_linear_7_157" x1="-0.000732422" y1="45.065" x2="89.9996" y2="45.065" gradientUnits="userSpaceOnUse">
<stop offset="0.637866" stop-color="#DD9900"/>
<stop offset="1" stop-color="#D0B601"/>
</linearGradient>
<clipPath id="clip0_7_157">
<rect width="90" height="90" fill="white"/>
</clipPath>
</defs>
</svg>
