<svg width="280" height="57" viewBox="0 0 280 57" fill="none" xmlns="http://www.w3.org/2000/svg">
<path d="M5.48816 26.0289C5.28734 26.0302 5.08832 25.9912 4.90282 25.9142C4.71733 25.8372 4.54913 25.7238 4.40816 25.5807C4.26529 25.4381 4.15194 25.2687 4.07461 25.0822C3.99727 24.8957 3.95746 24.6958 3.95746 24.4939C3.95746 24.2919 3.99727 24.092 4.07461 23.9055C4.15194 23.719 4.26529 23.5496 4.40816 23.407L27.1434 0.650879L32.4697 5.9807C32.7496 6.26982 32.9048 6.65738 32.9019 7.0599C32.899 7.46241 32.7382 7.84767 32.4542 8.13271C32.1701 8.41774 31.7856 8.57973 31.3833 8.58378C30.9811 8.58784 30.5933 8.43363 30.3036 8.15439L27.1434 4.99825L6.56816 25.5807C6.28178 25.8675 5.89331 26.0287 5.48816 26.0289Z" fill="url(#paint0_linear_22_347)"/>
<path d="M43.3864 19.0965C42.9914 19.0961 42.6116 18.9445 42.3248 18.6728L34.5561 11.2368C34.4103 11.0973 34.2933 10.9305 34.2119 10.7457C34.1305 10.561 34.0863 10.362 34.0817 10.1602C34.0725 9.75252 34.2255 9.35791 34.507 9.06315C34.7886 8.76839 35.1756 8.59762 35.583 8.58841C35.7847 8.58384 35.9854 8.61908 36.1735 8.69211C36.3616 8.76514 36.5335 8.87453 36.6793 9.01403L44.4479 16.45C44.6701 16.6618 44.8237 16.9354 44.8888 17.2355C44.954 17.5355 44.9277 17.8483 44.8134 18.1332C44.6991 18.4182 44.502 18.6623 44.2476 18.834C43.9932 19.0057 43.6932 19.0972 43.3864 19.0965Z" fill="url(#paint1_linear_22_347)"/>
<path d="M27.6895 56.5465L1.18659 30.0263C1.04395 29.8836 0.930811 29.7142 0.853618 29.5277C0.776425 29.3412 0.736694 29.1413 0.736694 28.9395C0.736694 28.7376 0.776425 28.5378 0.853618 28.3513C0.930811 28.1648 1.04395 27.9954 1.18659 27.8527C1.32922 27.7099 1.49855 27.5967 1.68491 27.5195C1.87127 27.4422 2.07101 27.4025 2.27272 27.4025C2.47444 27.4025 2.67418 27.4422 2.86054 27.5195C3.0469 27.5967 3.21623 27.7099 3.35886 27.8527L27.7448 52.2605L44.7854 36.0991C45.084 35.8424 45.4697 35.7102 45.8628 35.7301C46.256 35.7499 46.6264 35.9202 46.8976 36.2058C47.1688 36.4913 47.3198 36.8702 47.3196 37.2641C47.3194 37.658 47.1679 38.0367 46.8964 38.3219L27.6895 56.5465Z" fill="url(#paint2_linear_22_347)"/>
<path d="M27.8491 48.736C27.6457 48.7335 27.4449 48.6904 27.2584 48.6092C27.0719 48.528 26.9034 48.4103 26.763 48.2632L8.00409 29.5167L26.8182 10.6904C26.9595 10.5436 27.1286 10.4264 27.3157 10.3457C27.5027 10.265 27.7039 10.2223 27.9076 10.2203C28.1113 10.2182 28.3134 10.2568 28.502 10.3337C28.6906 10.4106 28.8621 10.5244 29.0063 10.6683C29.1505 10.8122 29.2647 10.9834 29.3421 11.172C29.4195 11.3605 29.4586 11.5626 29.4571 11.7664C29.4557 11.9702 29.4136 12.1717 29.3335 12.3591C29.2534 12.5465 29.1368 12.7161 28.9905 12.8579L12.3486 29.5167L28.9168 46.0956C29.0597 46.2382 29.173 46.4076 29.2504 46.5941C29.3277 46.7806 29.3675 46.9805 29.3675 47.1825C29.3675 47.3844 29.3277 47.5843 29.2504 47.7708C29.173 47.9573 29.0597 48.1267 28.9168 48.2693C28.7788 48.4143 28.6133 48.5302 28.43 48.6103C28.2466 48.6905 28.0491 48.7332 27.8491 48.736Z" fill="url(#paint3_linear_22_347)"/>
<path d="M28.4259 41.7298C28.0191 41.7286 27.6291 41.5676 27.3398 41.2816L15.6807 29.6149L27.1495 18.0834C27.4418 17.8219 27.823 17.6824 28.2148 17.6934C28.6067 17.7043 28.9795 17.865 29.2567 18.1424C29.5339 18.4197 29.6945 18.7928 29.7054 19.1849C29.7164 19.577 29.5769 19.9584 29.3157 20.2509L19.9945 29.5842L29.512 39.1079C29.7271 39.3226 29.8737 39.5964 29.9331 39.8945C29.9925 40.1927 29.9621 40.5017 29.8458 40.7826C29.7295 41.0634 29.5324 41.3034 29.2796 41.472C29.0268 41.6407 28.7297 41.7304 28.4259 41.7298Z" fill="url(#paint4_linear_22_347)"/>
<path d="M32.3409 35.9825V20.2386H42.8525V23.2167H35.857V26.5079H42.0793V29.486H35.857V35.9825H32.3409Z" fill="url(#paint5_linear_22_347)"/>
<path d="M60.1509 28.0983C60.17 29.3113 59.9619 30.5172 59.5372 31.6535C59.1764 32.6157 58.6159 33.4904 57.8927 34.2202C57.1968 34.9115 56.3594 35.4437 55.4382 35.7798C54.4527 36.1279 53.415 36.3044 52.37 36.3018C51.3246 36.3092 50.286 36.1326 49.3018 35.7798C48.3673 35.4448 47.5156 34.9129 46.8043 34.2202C46.0623 33.5055 45.4808 32.6411 45.0984 31.6842C44.6677 30.5495 44.4594 29.3425 44.4847 28.129C44.4542 26.9151 44.6627 25.707 45.0984 24.5737C45.4873 23.6062 46.0699 22.7285 46.8104 21.9947C47.5245 21.304 48.3753 20.7707 49.3079 20.429C50.2649 20.0777 51.277 19.9009 52.2963 19.907C53.3419 19.8969 54.381 20.0737 55.3645 20.429C56.2975 20.7662 57.1471 21.3002 57.8559 21.9947C58.5909 22.7269 59.1637 23.6056 59.5372 24.5737C59.963 25.699 60.1713 26.8951 60.1509 28.0983ZM48.142 28.0983C48.1318 28.8043 48.2269 29.508 48.4243 30.186C48.5906 30.7678 48.8678 31.312 49.2404 31.7886C49.5901 32.231 50.0375 32.5862 50.5475 32.8263C51.105 33.0653 51.7052 33.1886 52.3117 33.1886C52.9182 33.1886 53.5184 33.0653 54.0759 32.8263C54.5914 32.5896 55.0435 32.234 55.3952 31.7886C55.7679 31.312 56.045 30.7678 56.2113 30.186C56.4087 29.508 56.5038 28.8043 56.4936 28.0983C56.5034 27.3882 56.4083 26.6805 56.2113 25.9983C56.0436 25.4132 55.7667 24.8653 55.3952 24.3833C55.045 23.938 54.5924 23.5841 54.0759 23.3518C53.5251 23.1018 52.9255 22.978 52.3209 22.9895C51.7088 22.9765 51.102 23.1047 50.5475 23.364C50.0375 23.6071 49.5903 23.9642 49.2404 24.4079C48.8677 24.889 48.5906 25.4372 48.4243 26.0228C48.2286 26.6969 48.1335 27.3963 48.142 28.0983Z" fill="url(#paint6_linear_22_347)"/>
<path d="M67.7109 20.0544C70.0754 20.0544 71.8857 20.4761 73.1416 21.3194C73.7689 21.7521 74.2726 22.341 74.6029 23.028C74.9333 23.715 75.0789 24.4764 75.0254 25.2369C75.0674 26.1919 74.8005 27.1351 74.2645 27.9264C73.6991 28.6614 72.9407 29.2248 72.0738 29.5536C72.3868 29.9465 72.7243 30.3948 73.0679 30.9044C73.4116 31.4141 73.7613 31.9422 74.105 32.4948C74.4486 33.0474 74.7738 33.6246 75.0929 34.2202C75.412 34.8158 75.7066 35.4053 75.9766 35.9825H72.0186L71.1411 34.4167C70.8466 33.8825 70.5275 33.3729 70.2268 32.8694C69.9261 32.3658 69.6132 31.8992 69.3063 31.4509C69.0228 31.0262 68.7176 30.6163 68.392 30.2229H66.6432V35.9825H63.1025V20.4658C63.893 20.311 64.6922 20.2044 65.4957 20.1465C66.3241 20.0851 67.0604 20.0544 67.7109 20.0544ZM67.9318 23.0878C67.6741 23.0878 67.4409 23.0878 67.2384 23.0878L66.6554 23.1369V27.4044H67.6557C68.6351 27.4735 69.6165 27.3028 70.5152 26.9071C70.8019 26.7292 71.0342 26.4759 71.1868 26.1748C71.3394 25.8738 71.4063 25.5366 71.3804 25.2001C71.4064 24.8706 71.3375 24.5405 71.182 24.2489C71.0265 23.9573 70.7909 23.7163 70.5029 23.5544C69.6974 23.1891 68.8142 23.0288 67.9318 23.0878Z" fill="url(#paint7_linear_22_347)"/>
<path d="M82.4259 20.2386C82.6959 20.736 83.0395 21.3562 83.3709 22.0808C83.7023 22.8053 84.095 23.6158 84.4877 24.4693C84.8804 25.3229 85.2548 26.2009 85.6352 27.0913L86.7029 29.615C87.0404 28.829 87.3964 27.9878 87.7768 27.0913C88.1573 26.1948 88.5377 25.3229 88.9243 24.4693C89.3109 23.6158 89.6852 22.8176 90.0411 22.0808C90.397 21.3439 90.71 20.7299 90.9861 20.2386H94.2077C94.3632 21.2825 94.5043 22.4533 94.6311 23.7509C94.7539 25.0404 94.8704 26.3913 94.9686 27.7913C95.0668 29.1913 95.1589 30.5974 95.2386 32.0036C95.3184 33.4097 95.3982 34.7422 95.4595 35.9825H92.0048C91.9639 34.4556 91.9045 32.7895 91.8268 30.9843C91.747 29.179 91.6366 27.3615 91.4832 25.5316C91.2132 26.1457 90.9064 26.8702 90.575 27.6439C90.2436 28.4176 89.9061 29.1913 89.5809 29.9588C89.2557 30.7264 88.9673 31.4755 88.6359 32.1755L87.8627 33.9808H85.4082L84.6289 32.1755L83.6839 29.9588L82.6591 27.6439C82.3277 26.8702 82.0454 26.1702 81.7448 25.5316C81.5975 27.3737 81.4809 29.179 81.4073 30.9843C81.3336 32.7895 81.2723 34.4536 81.2232 35.9825H77.7745C77.8359 34.7544 77.9075 33.4281 77.9893 32.0036C78.0711 30.579 78.1632 29.1749 78.2654 27.7913C78.3636 26.3913 78.4741 25.0404 78.6029 23.7509C78.7318 22.4615 78.873 21.2948 79.0202 20.2386H82.4259Z" fill="url(#paint8_linear_22_347)"/>
<path d="M104.75 36.3017C103.774 36.3221 102.803 36.1639 101.884 35.8351C101.136 35.556 100.459 35.1134 99.9023 34.5395C99.371 33.9768 98.9744 33.3007 98.7425 32.5623C98.4837 31.7444 98.3573 30.8903 98.3682 30.0324V20.2079H101.909V29.7377C101.898 30.2858 101.971 30.8324 102.124 31.3588C102.252 31.7608 102.461 32.1325 102.737 32.4517C102.982 32.7309 103.295 32.9424 103.645 33.0658C104.024 33.1869 104.42 33.247 104.818 33.2439C105.203 33.2605 105.587 33.1989 105.948 33.0628C106.309 32.9267 106.638 32.7188 106.916 32.4517C107.456 31.9175 107.726 31.021 107.726 29.75V20.2386H111.267V30.0631C111.276 30.9259 111.146 31.7844 110.88 32.6053C110.641 33.3496 110.236 34.0298 109.696 34.5947C109.129 35.17 108.438 35.6088 107.677 35.8781C106.734 36.1913 105.743 36.3347 104.75 36.3017Z" fill="url(#paint9_linear_22_347)"/>
<path d="M125.178 32.9123V35.9825H114.666V20.2386H118.207V32.9123H125.178Z" fill="url(#paint10_linear_22_347)"/>
<path d="M138.709 35.9825C138.531 35.436 138.347 34.8711 138.144 34.2939C137.942 33.7167 137.739 33.1457 137.53 32.5746H131.394C131.198 33.1518 130.995 33.7229 130.78 34.3001C130.566 34.8772 130.394 35.4422 130.222 35.9825H126.54C127.154 34.2878 127.694 32.7158 128.228 31.279C128.762 29.8422 129.277 28.4851 129.786 27.2141C130.296 25.943 130.799 24.7579 131.29 23.5913C131.781 22.4246 132.296 21.3255 132.83 20.2386H136.187C136.702 21.3275 137.211 22.4451 137.715 23.5913C138.218 24.7375 138.723 25.9451 139.23 27.2141C139.742 28.4872 140.263 29.8422 140.795 31.279C141.323 32.7158 141.887 34.2878 142.483 35.9825H138.709ZM134.45 23.8062C134.37 24.0334 134.254 24.3465 134.106 24.7395C133.959 25.1325 133.781 25.5869 133.585 26.1027L132.934 27.8036C132.693 28.4217 132.447 29.0726 132.198 29.7562H136.702C136.457 29.0746 136.223 28.4237 136.002 27.7974C135.782 27.1711 135.561 26.6123 135.358 26.0904L134.818 24.7272C134.671 24.3158 134.548 24.0272 134.45 23.8062Z" fill="url(#paint11_linear_22_347)"/>
<path d="M155.215 36.1851C154.35 36.1851 153.491 36.1851 152.638 36.1053C151.74 36.0483 150.848 35.9231 149.969 35.7308V20.4658C150.759 20.3213 151.555 20.2189 152.356 20.1588C153.215 20.0913 154.019 20.0544 154.761 20.0544C155.684 20.0495 156.606 20.1213 157.517 20.2694C158.278 20.3883 159.014 20.6398 159.689 21.0123C160.274 21.3382 160.763 21.8126 161.106 22.3878C161.464 23.0283 161.64 23.7544 161.616 24.4878C161.615 25.1062 161.442 25.7122 161.117 26.2381C160.792 26.764 160.327 27.1891 159.775 27.4658C160.618 27.7186 161.343 28.2654 161.818 29.0071C162.187 29.6825 162.375 30.4418 162.364 31.2115C162.411 31.9325 162.272 32.6534 161.962 33.3058C161.652 33.9582 161.18 34.5203 160.591 34.9387C159.364 35.7696 157.572 36.1851 155.215 36.1851ZM153.424 26.4158H155.148C155.95 26.4746 156.754 26.3311 157.486 25.9983C157.715 25.8591 157.902 25.6594 158.025 25.4211C158.149 25.1828 158.204 24.9152 158.185 24.6474C158.209 24.3771 158.153 24.1058 158.024 23.867C157.895 23.6281 157.7 23.432 157.461 23.3027C156.788 23.0131 156.058 22.8828 155.326 22.922H154.35C154 22.922 153.694 22.922 153.424 22.9834V26.4158ZM153.424 29.1237V33.1887C153.675 33.1887 153.958 33.2439 154.258 33.2562C154.559 33.2685 154.872 33.2562 155.258 33.2562C156.136 33.2902 157.011 33.1352 157.823 32.8018C158.14 32.6563 158.403 32.4165 158.578 32.1153C158.752 31.8141 158.83 31.4662 158.799 31.1194C158.824 30.8088 158.76 30.4976 158.616 30.2217C158.472 29.9457 158.252 29.7162 157.983 29.5597C157.254 29.2137 156.45 29.0554 155.645 29.0992L153.424 29.1237Z" fill="url(#paint12_linear_22_347)"/>
<path d="M180.227 28.0983C180.253 29.3218 180.045 30.5391 179.614 31.6842C179.255 32.6476 178.694 33.5228 177.969 34.2509C177.266 34.9485 176.417 35.4813 175.484 35.8105C174.489 36.162 173.44 36.3386 172.385 36.3325C171.34 36.3394 170.301 36.1628 169.317 35.8105C168.383 35.4741 167.532 34.9425 166.819 34.2509C166.089 33.5231 165.522 32.6482 165.156 31.6842C164.729 30.5487 164.52 29.3422 164.543 28.129C164.512 26.9151 164.721 25.707 165.156 24.5737C165.545 23.6062 166.128 22.7285 166.868 21.9947C167.584 21.3053 168.434 20.7721 169.366 20.429C170.323 20.079 171.335 19.9022 172.354 19.907C173.4 19.8969 174.439 20.0737 175.423 20.429C176.357 20.7677 177.208 21.3014 177.92 21.9947C178.653 22.7285 179.226 23.6067 179.601 24.5737C180.028 25.6991 180.241 26.8946 180.227 28.0983ZM168.218 28.0983C168.211 28.8041 168.306 29.5074 168.501 30.186C168.669 30.7682 168.948 31.3123 169.323 31.7886C169.672 32.2293 170.117 32.5843 170.624 32.8263C171.182 33.0655 171.784 33.1888 172.391 33.1888C172.999 33.1888 173.6 33.0655 174.158 32.8263C174.671 32.588 175.121 32.2325 175.472 31.7886C175.846 31.3123 176.125 30.7682 176.294 30.186C176.488 29.5074 176.583 28.8041 176.576 28.0983C176.583 27.3883 176.488 26.6811 176.294 25.9983C176.124 25.4128 175.845 24.8649 175.472 24.3833C175.122 23.9395 174.672 23.5858 174.158 23.3518C173.605 23.1019 173.004 22.9781 172.397 22.9895C171.785 22.9765 171.178 23.1047 170.624 23.364C170.116 23.6079 169.671 23.965 169.323 24.4079C168.948 24.8887 168.669 25.4369 168.501 26.0228C168.302 26.6967 168.201 27.3956 168.2 28.0983H168.218Z" fill="url(#paint13_linear_22_347)"/>
<path d="M190.837 22.9649C189.201 22.9649 188.008 23.4234 187.26 24.3403C186.474 25.43 186.086 26.7567 186.161 28.0982C186.154 28.8073 186.245 29.5141 186.431 30.1982C186.593 30.7904 186.873 31.3438 187.253 31.8254C187.614 32.2915 188.081 32.6643 188.616 32.9123C189.215 33.1746 189.864 33.3024 190.518 33.2868C190.911 33.2868 191.248 33.2868 191.53 33.2868C191.778 33.2777 192.024 33.2489 192.267 33.2009V27.6684H195.808V35.4605C195.141 35.6917 194.458 35.8703 193.764 35.9947C192.618 36.202 191.455 36.2966 190.291 36.2772C189.197 36.2941 188.109 36.1088 187.082 35.7307C186.156 35.3891 185.317 34.8459 184.627 34.1403C183.923 33.4079 183.386 32.5325 183.05 31.5737C182.663 30.4566 182.474 29.2804 182.492 28.0982C182.472 26.9032 182.68 25.7153 183.105 24.5982C183.484 23.6328 184.056 22.7551 184.787 22.0193C185.503 21.316 186.357 20.7702 187.296 20.4166C188.278 20.0525 189.318 19.8694 190.365 19.8763C191.566 19.8678 192.762 20.0312 193.917 20.3614C194.284 20.4651 194.641 20.5985 194.985 20.7605C195.197 20.8531 195.402 20.9598 195.599 21.0798L194.58 23.9166C194.047 23.6405 193.488 23.4163 192.911 23.2473C192.238 23.0505 191.539 22.9553 190.837 22.9649Z" fill="url(#paint14_linear_22_347)"/>
<path d="M209.682 35.9825C209.504 35.436 209.32 34.8711 209.117 34.2939C208.915 33.7167 208.712 33.1457 208.504 32.5746H202.318C202.122 33.1518 201.925 33.7229 201.705 34.3001C201.484 34.8772 201.318 35.4422 201.146 35.9825H197.464C198.078 34.2878 198.618 32.7158 199.152 31.279C199.686 29.8422 200.201 28.4851 200.71 27.2141C201.22 25.943 201.717 24.7579 202.214 23.5913C202.711 22.4246 203.22 21.3255 203.748 20.2386H207.105C207.628 21.3275 208.137 22.4451 208.632 23.5913C209.127 24.7375 209.635 25.9451 210.154 27.2141C210.664 28.4851 211.179 29.8422 211.713 31.279C212.247 32.7158 212.811 34.2878 213.4 35.9825H209.682ZM205.386 23.8062C205.307 24.0334 205.19 24.3465 205.037 24.7395C204.883 25.1325 204.711 25.5869 204.515 26.1027C204.319 26.6185 204.104 27.1834 203.865 27.8036C203.625 28.4237 203.38 29.0746 203.134 29.7562H207.632C207.393 29.0746 207.16 28.4237 206.933 27.7974C206.706 27.1711 206.491 26.6123 206.288 26.0904L205.755 24.7272C205.615 24.3343 205.493 24.0272 205.386 23.8062Z" fill="url(#paint15_linear_22_347)"/>
<path d="M222.077 36.3018C219.516 36.3018 217.567 35.5895 216.229 34.1649C214.892 32.7404 214.223 30.7182 214.223 28.0983C214.202 26.9071 214.41 25.7231 214.836 24.6106C215.214 23.6408 215.786 22.7588 216.518 22.0193C217.242 21.3114 218.108 20.7652 219.058 20.4167C220.085 20.048 221.17 19.865 222.261 19.8764C222.878 19.8703 223.494 19.9196 224.102 20.0237C224.585 20.1064 225.063 20.2192 225.532 20.3614C225.882 20.4674 226.222 20.6009 226.551 20.7606C226.761 20.8555 226.966 20.9621 227.164 21.0799L226.14 23.9413C225.589 23.6592 225.008 23.4389 224.409 23.2842C223.693 23.0904 222.954 22.9974 222.212 23.0079C221.669 23.0083 221.129 23.1018 220.617 23.2842C220.093 23.4626 219.618 23.7612 219.23 24.1562C218.805 24.6027 218.478 25.1342 218.273 25.7158C218.009 26.4583 217.884 27.243 217.905 28.0307C217.9 28.7155 217.98 29.3983 218.144 30.0632C218.275 30.6495 218.528 31.2018 218.886 31.6842C219.259 32.1506 219.739 32.5193 220.285 32.7588C220.943 33.044 221.655 33.1803 222.372 33.1579C222.836 33.1614 223.299 33.1306 223.759 33.0658C224.125 33.0179 224.488 32.9461 224.845 32.8509C225.132 32.7801 225.413 32.6856 225.685 32.5685L226.373 32.2983L227.348 35.1351C226.686 35.5046 225.975 35.7815 225.237 35.9579C224.203 36.207 223.141 36.3226 222.077 36.3018Z" fill="url(#paint16_linear_22_347)"/>
<path d="M241.763 20.2386V23.2597H237.019V35.9825H233.479V23.2597H228.705V20.2386H241.763Z" fill="url(#paint17_linear_22_347)"/>
<path d="M255.195 21.9211C255.379 22.5351 255.576 23.2413 255.809 24.0211C256.042 24.8009 256.263 25.6053 256.515 26.4404C256.766 27.2755 257.018 28.1044 257.275 28.9395C257.533 29.7746 257.779 30.5483 258.018 31.2544C258.22 30.4869 258.417 29.6457 258.632 28.7369C258.846 27.8281 259.03 26.8948 259.215 25.9185C259.399 24.9422 259.577 23.9843 259.748 23.0202C259.92 22.0562 260.086 21.129 260.239 20.2386H263.921C263.385 22.8749 262.772 25.548 262.08 28.2579C261.389 30.9679 260.632 33.5427 259.81 35.9825H256.57C256.042 34.5272 255.527 33.0044 255.03 31.4018C254.532 29.7992 254.042 28.2027 253.557 26.6001L252.102 31.4018C251.618 33.0044 251.108 34.5272 250.581 35.9825H247.341C246.522 33.5264 245.774 30.9515 245.095 28.2579C244.416 25.5644 243.802 22.8913 243.254 20.2386H247.114C247.261 21.129 247.433 22.0808 247.611 23.0202C247.789 23.9597 247.985 24.9483 248.181 25.9185C248.378 26.8886 248.58 27.8281 248.795 28.7369C249.01 29.6457 249.206 30.4869 249.409 31.2544C249.685 30.5176 249.949 29.7255 250.206 28.8965C250.464 28.0676 250.716 27.2264 250.955 26.3974C251.194 25.5685 251.421 24.7579 251.624 23.9843C251.826 23.2106 252.017 22.5229 252.182 21.9211H255.195Z" fill="url(#paint18_linear_22_347)"/>
<path d="M275.795 35.9825C275.623 35.436 275.433 34.8711 275.23 34.2939C275.028 33.7167 274.832 33.1457 274.617 32.5746H268.48L267.867 34.3001C267.67 34.8772 267.48 35.4422 267.308 35.9825H263.627C264.24 34.2878 264.78 32.7158 265.314 31.279C265.848 29.8422 266.363 28.4851 266.873 27.2141C267.382 25.943 267.879 24.7579 268.376 23.5913C268.873 22.4246 269.382 21.3255 269.91 20.2386H273.267C273.786 21.3275 274.296 22.4451 274.795 23.5913C275.294 24.7375 275.801 25.9451 276.317 27.2141C276.826 28.4851 277.341 29.8422 277.875 31.279C278.409 32.7158 278.974 34.2878 279.563 35.9825H275.795ZM271.542 23.8062C271.463 24.0334 271.346 24.3465 271.193 24.7395C271.039 25.1325 270.868 25.5869 270.671 26.1027C270.475 26.6185 270.26 27.1834 270.021 27.8036C269.781 28.4237 269.536 29.0746 269.29 29.7562H273.788C273.549 29.0746 273.316 28.4237 273.089 27.7974C272.862 27.1711 272.647 26.6123 272.445 26.0904L271.911 24.7272C271.743 24.3343 271.62 24.0272 271.542 23.8062Z" fill="url(#paint19_linear_22_347)"/>
<defs>
<linearGradient id="paint0_linear_22_347" x1="3.95746" y1="13.3597" x2="32.902" y2="13.3597" gradientUnits="userSpaceOnUse">
<stop offset="0.637866" stop-color="#DD9900"/>
<stop offset="1" stop-color="#D0B601"/>
</linearGradient>
<linearGradient id="paint1_linear_22_347" x1="34.0813" y1="13.8504" x2="44.9238" y2="13.8504" gradientUnits="userSpaceOnUse">
<stop offset="0.637866" stop-color="#DD9900"/>
<stop offset="1" stop-color="#D0B601"/>
</linearGradient>
<linearGradient id="paint2_linear_22_347" x1="0.736694" y1="41.9972" x2="47.3196" y2="41.9972" gradientUnits="userSpaceOnUse">
<stop offset="0.637866" stop-color="#DD9900"/>
<stop offset="1" stop-color="#D0B601"/>
</linearGradient>
<linearGradient id="paint3_linear_22_347" x1="8.00409" y1="29.508" x2="29.4572" y2="29.508" gradientUnits="userSpaceOnUse">
<stop offset="0.637866" stop-color="#DD9900"/>
<stop offset="1" stop-color="#D0B601"/>
</linearGradient>
<linearGradient id="paint4_linear_22_347" x1="15.6807" y1="29.73" x2="29.9627" y2="29.73" gradientUnits="userSpaceOnUse">
<stop offset="0.637866" stop-color="#DD9900"/>
<stop offset="1" stop-color="#D0B601"/>
</linearGradient>
<linearGradient id="paint5_linear_22_347" x1="32.3409" y1="28.1228" x2="42.8525" y2="28.1228" gradientUnits="userSpaceOnUse">
<stop offset="0.637866" stop-color="#DD9900"/>
<stop offset="1" stop-color="#D0B601"/>
</linearGradient>
<linearGradient id="paint6_linear_22_347" x1="44.4818" y1="28.1171" x2="60.1522" y2="28.1171" gradientUnits="userSpaceOnUse">
<stop offset="0.637866" stop-color="#DD9900"/>
<stop offset="1" stop-color="#D0B601"/>
</linearGradient>
<linearGradient id="paint7_linear_22_347" x1="63.1025" y1="28.0309" x2="75.9766" y2="28.0309" gradientUnits="userSpaceOnUse">
<stop offset="0.637866" stop-color="#DD9900"/>
<stop offset="1" stop-color="#D0B601"/>
</linearGradient>
<linearGradient id="paint8_linear_22_347" x1="77.7745" y1="28.1228" x2="95.4595" y2="28.1228" gradientUnits="userSpaceOnUse">
<stop offset="0.637866" stop-color="#DD9900"/>
<stop offset="1" stop-color="#D0B601"/>
</linearGradient>
<linearGradient id="paint9_linear_22_347" x1="98.3676" y1="28.2696" x2="111.267" y2="28.2696" gradientUnits="userSpaceOnUse">
<stop offset="0.637866" stop-color="#DD9900"/>
<stop offset="1" stop-color="#D0B601"/>
</linearGradient>
<linearGradient id="paint10_linear_22_347" x1="114.666" y1="28.1228" x2="125.178" y2="28.1228" gradientUnits="userSpaceOnUse">
<stop offset="0.637866" stop-color="#DD9900"/>
<stop offset="1" stop-color="#D0B601"/>
</linearGradient>
<linearGradient id="paint11_linear_22_347" x1="126.54" y1="28.1228" x2="142.483" y2="28.1228" gradientUnits="userSpaceOnUse">
<stop offset="0.637866" stop-color="#DD9900"/>
<stop offset="1" stop-color="#D0B601"/>
</linearGradient>
<linearGradient id="paint12_linear_22_347" x1="149.969" y1="28.1322" x2="162.373" y2="28.1322" gradientUnits="userSpaceOnUse">
<stop offset="0.637866" stop-color="#DD9900"/>
<stop offset="1" stop-color="#D0B601"/>
</linearGradient>
<linearGradient id="paint13_linear_22_347" x1="164.54" y1="28.1324" x2="180.229" y2="28.1324" gradientUnits="userSpaceOnUse">
<stop offset="0.637866" stop-color="#DD9900"/>
<stop offset="1" stop-color="#D0B601"/>
</linearGradient>
<linearGradient id="paint14_linear_22_347" x1="182.49" y1="28.0906" x2="195.808" y2="28.0906" gradientUnits="userSpaceOnUse">
<stop offset="0.637866" stop-color="#DD9900"/>
<stop offset="1" stop-color="#D0B601"/>
</linearGradient>
<linearGradient id="paint15_linear_22_347" x1="197.464" y1="28.1228" x2="213.4" y2="28.1228" gradientUnits="userSpaceOnUse">
<stop offset="0.637866" stop-color="#DD9900"/>
<stop offset="1" stop-color="#D0B601"/>
</linearGradient>
<linearGradient id="paint16_linear_22_347" x1="214.221" y1="28.1028" x2="227.348" y2="28.1028" gradientUnits="userSpaceOnUse">
<stop offset="0.637866" stop-color="#DD9900"/>
<stop offset="1" stop-color="#D0B601"/>
</linearGradient>
<linearGradient id="paint17_linear_22_347" x1="228.705" y1="28.1228" x2="241.763" y2="28.1228" gradientUnits="userSpaceOnUse">
<stop offset="0.637866" stop-color="#DD9900"/>
<stop offset="1" stop-color="#D0B601"/>
</linearGradient>
<linearGradient id="paint18_linear_22_347" x1="243.254" y1="28.1228" x2="263.921" y2="28.1228" gradientUnits="userSpaceOnUse">
<stop offset="0.637866" stop-color="#DD9900"/>
<stop offset="1" stop-color="#D0B601"/>
</linearGradient>
<linearGradient id="paint19_linear_22_347" x1="263.627" y1="28.1228" x2="279.563" y2="28.1228" gradientUnits="userSpaceOnUse">
<stop offset="0.637866" stop-color="#DD9900"/>
<stop offset="1" stop-color="#D0B601"/>
</linearGradient>
</defs>
</svg>
