<svg width="90" height="90" viewBox="0 0 90 90" fill="none" xmlns="http://www.w3.org/2000/svg">
<path d="M83.25 45.1055C83.25 27.6504 71.4551 12.4278 54.5449 8.08599C52.9278 7.66411 51.2754 8.64849 50.8711 10.2657C50.4492 11.8829 51.4336 13.5352 53.0508 13.9395C67.2715 17.5782 77.2032 30.4102 77.2032 45.1055C77.2032 58.0606 69.4864 69.5391 57.9375 74.584L60.7324 68.0801C61.3828 66.5508 60.6797 64.7754 59.1504 64.1075C57.6211 63.4571 55.8457 64.1602 55.1778 65.6895L49.7285 78.3809C49.0782 79.9102 49.7813 81.6856 51.3106 82.3536L64.002 87.8028C65.9004 88.4708 67.4825 87.3633 67.9746 86.2208C68.625 84.6915 67.9219 82.9161 66.3926 82.2481L60.8731 79.8751C74.3203 73.793 83.25 60.293 83.25 45.1055Z" fill="url(#paint0_linear_7_118)"/>
<path d="M36.9844 76.2715C22.7637 72.6153 12.832 59.8008 12.832 45.1055C12.832 32.3262 20.3379 20.9883 31.623 15.8379L29.0039 21.9199C28.3535 23.4492 29.0215 25.2949 30.5859 25.8926C32.4141 26.5782 33.9609 25.752 34.5586 24.3106L40.0078 11.6016C40.5352 10.3711 40.5176 8.52542 38.4258 7.62893L25.7344 2.17971C24.2051 1.52932 22.4297 2.23245 21.7617 3.76175C21.1113 5.29104 21.8145 7.06643 23.3438 7.7344L29.25 10.2657C15.75 16.3653 6.78516 29.8828 6.78516 45.1055C6.78516 62.5606 18.5977 77.7657 35.4902 82.125C37.5293 82.6524 38.8125 81.3164 39.1641 79.9453C39.5684 78.3281 38.6016 76.6934 36.9844 76.2715Z" fill="url(#paint1_linear_7_118)"/>
<path d="M52.1367 56.4961C53.6836 54.8789 54.457 52.8398 54.457 50.4141C54.457 49.3066 54.2637 48.2871 53.8945 47.3379C53.5254 46.3887 52.998 45.5801 52.3125 44.877C51.627 44.1914 50.7305 43.6113 49.6406 43.1191C49.0605 42.873 47.9004 42.5215 46.125 42.082V31.9922C47.2676 32.2207 48.1641 32.7129 48.832 33.4512C49.4824 34.1895 49.9219 35.2441 50.1328 36.6152L53.7539 36.0703C53.4375 33.8555 52.5234 32.0977 50.9941 30.832C49.7988 29.8301 48.1816 29.2324 46.1426 29.0391V27.3691H44.0684V29.0391C41.748 29.2676 39.9902 29.918 38.8125 30.9551C37.0371 32.502 36.1582 34.5234 36.1582 37.0195C36.1582 38.4258 36.457 39.6738 37.0723 40.7813C37.6699 41.8887 38.5313 42.75 39.6563 43.3652C41.168 44.209 42.6445 44.7715 44.0859 45.0352V56.1973C42.7148 56.0566 41.5195 55.3535 40.5352 54.1055C39.8496 53.2266 39.3574 51.8379 39.0937 49.957L35.5605 50.625C35.6836 52.4355 36.1582 53.9824 36.9492 55.248C37.7402 56.5137 38.6895 57.4277 39.7969 57.9902C40.8867 58.5527 42.3281 58.9395 44.0684 59.168V62.666H46.1426V59.1152C48.6035 58.9922 50.6074 58.1133 52.1367 56.4961ZM44.0859 41.6426C42.4863 41.168 41.3613 40.5176 40.6934 39.709C40.0254 38.9004 39.6914 37.8984 39.6914 36.7031C39.6914 35.4902 40.0781 34.4531 40.8691 33.5742C41.6602 32.6953 42.7324 32.1504 44.0859 31.9395V41.6426ZM49.5176 54.4043C48.6211 55.4238 47.4961 56.0039 46.1426 56.1797V45.5098C48.0234 46.125 49.2891 46.8105 49.9219 47.584C50.5547 48.3574 50.8711 49.377 50.8711 50.6602C50.8535 52.1367 50.4141 53.4023 49.5176 54.4043Z" fill="url(#paint2_linear_7_118)"/>
<defs>
<linearGradient id="paint0_linear_7_118" x1="49.4863" y1="48.0588" x2="83.25" y2="48.0588" gradientUnits="userSpaceOnUse">
<stop offset="0.637866" stop-color="#DD9900"/>
<stop offset="1" stop-color="#D0B601"/>
</linearGradient>
<linearGradient id="paint1_linear_7_118" x1="6.78516" y1="42.1526" x2="40.2969" y2="42.1526" gradientUnits="userSpaceOnUse">
<stop offset="0.637866" stop-color="#DD9900"/>
<stop offset="1" stop-color="#D0B601"/>
</linearGradient>
<linearGradient id="paint2_linear_7_118" x1="35.5605" y1="45.045" x2="54.457" y2="45.045" gradientUnits="userSpaceOnUse">
<stop offset="0.637866" stop-color="#DD9900"/>
<stop offset="1" stop-color="#D0B601"/>
</linearGradient>
</defs>
</svg>
