<svg width="60" height="60" viewBox="0 0 60 60" fill="none" xmlns="http://www.w3.org/2000/svg">
<g clip-path="url(#clip0_7_81)">
<path d="M57.0491 30.4935H51.0077L49.3179 19.5067C50.4068 20.2296 51.7119 20.6516 53.1147 20.6516C56.9114 20.6516 60 17.5611 60 13.7654C60 9.96969 56.9114 6.88007 53.1147 6.88007C49.3179 6.88007 46.2293 9.96864 46.2293 13.7654C46.2293 14.5632 46.3729 15.3264 46.6238 16.0396L42.8606 12.8174C42.0954 12.1623 41.1207 11.8053 40.1143 11.8053H26.5572C24.9304 11.8053 23.6063 13.1292 23.6063 14.7562C23.6063 16.3833 24.9302 17.7072 26.5572 17.7072H38.7353L28.4989 25.7462C26.6399 27.2069 25.5735 29.3992 25.5735 31.7639C25.5735 34.3803 26.8877 36.7861 29.09 38.2025L38.2178 44.0697L30.5231 47.2762C29.7501 47.5978 29.1422 48.2332 28.8549 49.0182C28.5677 49.8051 28.6218 50.6835 29.0054 51.429C29.5365 52.4597 30.589 53.0599 31.6837 53.0599C32.09 53.0599 32.5021 52.9772 32.8945 52.8032L43.5017 48.1212C45.1581 47.35 46.2291 45.669 46.2291 43.8395C46.2291 42.5943 45.7245 41.3764 44.8442 40.4983L38.8156 34.4688L44.4988 29.4947L44.9376 33.0031C45.1785 34.9359 46.828 36.3956 48.7746 36.3956H57.0487C58.6755 36.3956 59.9996 35.0717 59.9996 33.4446C60 31.8174 58.6762 30.4935 57.0491 30.4935ZM53.1147 8.84623C55.8264 8.84623 58.0328 11.0524 58.0328 13.7644C58.0328 16.4763 55.8266 18.6825 53.1147 18.6825C50.403 18.6825 48.1966 16.4763 48.1966 13.7644C48.1966 11.0524 50.403 8.84623 53.1147 8.84623ZM57.0491 34.4279H48.7751C47.8191 34.4279 47.0085 33.7088 46.8895 32.7597L45.9914 25.5775L35.9369 34.373L43.4536 41.8897C43.9682 42.4021 44.2621 43.1124 44.2621 43.8401C44.2621 44.9073 43.6366 45.8889 42.6884 46.3315L32.0988 51.0045C31.5952 51.2297 31.0049 51.0192 30.7531 50.5305C30.6184 50.2678 30.6006 49.9728 30.7011 49.6954C30.8024 49.4201 31.007 49.2056 31.2785 49.0925L39.6382 45.6097C40.1861 45.3824 40.559 44.874 40.611 44.2829C40.663 43.6918 40.3858 43.1252 39.8871 42.8054L30.1534 36.5475C28.5177 35.4941 27.541 33.7059 27.541 31.7613C27.541 30.0046 28.3337 28.3738 29.7146 27.2878L41.8071 17.7911L39.7513 15.7393H26.5572C26.0152 15.7393 25.5735 15.2987 25.5735 14.7556C25.5735 14.2126 26.0152 13.7719 26.5572 13.7719H40.1143C40.6513 13.7719 41.1717 13.9608 41.5798 14.3099L47.2798 19.1985L49.3198 32.4605H57.0489C57.5909 32.4605 58.0326 32.9012 58.0326 33.4442C58.0326 33.9873 57.5911 34.4279 57.0491 34.4279Z" fill="url(#paint0_linear_7_81)"/>
<path d="M14.4768 50.6543C13.983 51.216 13.1519 51.3123 12.545 50.8795C12.2127 50.6423 12.0001 50.2883 11.9481 49.884C11.896 49.4788 12.011 49.0843 12.2727 48.7706L25.3467 33.082L23.8359 31.822L10.7608 47.5114C10.154 48.2393 9.87551 49.1964 9.99658 50.1366C10.1177 51.0769 10.6301 51.9318 11.4021 52.4826C12.0041 52.9115 12.6974 53.1199 13.3869 53.1199C14.3391 53.1199 15.2823 52.7205 15.9561 51.9513L27.2971 39.0032L25.8167 37.7068L14.4768 50.6543Z" fill="url(#paint1_linear_7_81)"/>
<path d="M29.5081 19.6738H7.86884V21.641H29.5081V19.6738Z" fill="url(#paint2_linear_7_81)"/>
<path d="M5.90164 19.6738H1.96722V21.641H5.90164V19.6738Z" fill="url(#paint3_linear_7_81)"/>
<path d="M24.5902 23.6082H9.83606V25.5754H24.5902V23.6082Z" fill="url(#paint4_linear_7_81)"/>
<path d="M7.86887 23.6082H3.93445V25.5754H7.86887V23.6082Z" fill="url(#paint5_linear_7_81)"/>
<path d="M23.6067 27.5426H10.8198V29.5098H23.6067V27.5426Z" fill="url(#paint6_linear_7_81)"/>
<path d="M8.85253 27.5426H5.90161V29.5098H8.85253V27.5426Z" fill="url(#paint7_linear_7_81)"/>
<path d="M22.623 15.7393H5.90161V17.7065H22.623V15.7393Z" fill="url(#paint8_linear_7_81)"/>
<path d="M3.93442 15.7393H0V17.7065H3.93442V15.7393Z" fill="url(#paint9_linear_7_81)"/>
</g>
<defs>
<linearGradient id="paint0_linear_7_81" x1="23.6063" y1="30.0059" x2="60" y2="30.0059" gradientUnits="userSpaceOnUse">
<stop offset="0.637866" stop-color="#DD9900"/>
<stop offset="1" stop-color="#D0B601"/>
</linearGradient>
<linearGradient id="paint1_linear_7_81" x1="9.96881" y1="42.4875" x2="27.2971" y2="42.4875" gradientUnits="userSpaceOnUse">
<stop offset="0.637866" stop-color="#DD9900"/>
<stop offset="1" stop-color="#D0B601"/>
</linearGradient>
<linearGradient id="paint2_linear_7_81" x1="7.86884" y1="20.6589" x2="29.5081" y2="20.6589" gradientUnits="userSpaceOnUse">
<stop offset="0.637866" stop-color="#DD9900"/>
<stop offset="1" stop-color="#D0B601"/>
</linearGradient>
<linearGradient id="paint3_linear_7_81" x1="1.96722" y1="20.6589" x2="5.90164" y2="20.6589" gradientUnits="userSpaceOnUse">
<stop offset="0.637866" stop-color="#DD9900"/>
<stop offset="1" stop-color="#D0B601"/>
</linearGradient>
<linearGradient id="paint4_linear_7_81" x1="9.83606" y1="24.5933" x2="24.5902" y2="24.5933" gradientUnits="userSpaceOnUse">
<stop offset="0.637866" stop-color="#DD9900"/>
<stop offset="1" stop-color="#D0B601"/>
</linearGradient>
<linearGradient id="paint5_linear_7_81" x1="3.93445" y1="24.5933" x2="7.86887" y2="24.5933" gradientUnits="userSpaceOnUse">
<stop offset="0.637866" stop-color="#DD9900"/>
<stop offset="1" stop-color="#D0B601"/>
</linearGradient>
<linearGradient id="paint6_linear_7_81" x1="10.8198" y1="28.5277" x2="23.6067" y2="28.5277" gradientUnits="userSpaceOnUse">
<stop offset="0.637866" stop-color="#DD9900"/>
<stop offset="1" stop-color="#D0B601"/>
</linearGradient>
<linearGradient id="paint7_linear_7_81" x1="5.90161" y1="28.5277" x2="8.85253" y2="28.5277" gradientUnits="userSpaceOnUse">
<stop offset="0.637866" stop-color="#DD9900"/>
<stop offset="1" stop-color="#D0B601"/>
</linearGradient>
<linearGradient id="paint8_linear_7_81" x1="5.90161" y1="16.7245" x2="22.623" y2="16.7245" gradientUnits="userSpaceOnUse">
<stop offset="0.637866" stop-color="#DD9900"/>
<stop offset="1" stop-color="#D0B601"/>
</linearGradient>
<linearGradient id="paint9_linear_7_81" x1="0" y1="16.7245" x2="3.93442" y2="16.7245" gradientUnits="userSpaceOnUse">
<stop offset="0.637866" stop-color="#DD9900"/>
<stop offset="1" stop-color="#D0B601"/>
</linearGradient>
<clipPath id="clip0_7_81">
<rect width="60" height="60" fill="white"/>
</clipPath>
</defs>
</svg>
